<svg width="46" height="64" viewBox="0 0 46 64" fill="none" xmlns="http://www.w3.org/2000/svg">
<path d="M22.5859 63.8383L4.11595 58.7109L0 12.5457H45.2272L41.1069 58.7037L22.5859 63.8383Z" fill="#264DE4"/>
<path d="M37.5794 55.7645L41.1005 16.3204H22.6136V59.9136L37.5794 55.7645Z" fill="#2965F1"/>
<path d="M9.43572 33.4424L9.94319 39.1044H22.6136V33.4424H9.43572Z" fill="#EBEBEB"/>
<path d="M8.41606 21.9825L8.93076 27.6445H22.6136V21.9825H8.41606Z" fill="#EBEBEB"/>
<path d="M22.6136 48.1472L22.5888 48.1538L16.283 46.4511L15.8799 41.9354H10.1962L10.9894 50.8255L22.5875 54.0453L22.6136 54.038V48.1472Z" fill="#EBEBEB"/>
<path d="M10.6439 0H17.5015V2.86774H13.5116V5.73547H17.5015V8.60321H10.6439V0Z" fill="white"/>
<path d="M18.8731 0H25.7307V2.49368H21.7408V2.99242H25.7307V8.72789H18.8731V6.10952H22.863V5.61079H18.8731V0Z" fill="white"/>
<path d="M27.1022 0H33.9599V2.49368H29.97V2.99242H33.9599V8.72789H27.1022V6.10952H31.0921V5.61079H27.1022V0Z" fill="white"/>
<path d="M35.7552 33.4425L36.7774 21.9825H22.594V27.6445H30.5723L30.0571 33.4425H22.594V39.1044H29.5661L28.9089 46.4475L22.594 48.1519V54.0425L34.2014 50.8256L34.2865 49.869L35.617 34.9629L35.7552 33.4425Z" fill="white"/>
</svg>
