<svg width="46" height="64" viewBox="0 0 46 64" fill="none" xmlns="http://www.w3.org/2000/svg">
<path d="M45.2272 12.5457L41.1069 58.7037L22.5859 63.8383L4.11595 58.7109L0 12.5457H45.2272Z" fill="#E44D26"/>
<path d="M22.6136 59.9136L37.5794 55.7645L41.1005 16.3204H22.6136V59.9136Z" fill="#F16529"/>
<path d="M14.6039 27.6445H22.6136V21.9825H8.41606L8.55159 23.5015L9.94319 39.1044H22.6136V33.4425H15.1213L14.6039 27.6445Z" fill="#EBEBEB"/>
<path d="M15.8799 41.9354H10.1962L10.9894 50.8255L22.5875 54.0453L22.6136 54.038V48.1472L22.5888 48.1538L16.283 46.4511L15.8799 41.9354Z" fill="#EBEBEB"/>
<path d="M4.20797 0H7.0853V2.8428H9.71739V0H12.5948V8.6087H9.71751V5.726H7.08543V8.6087H4.20809V0H4.20797Z" fill="white"/>
<path d="M16.3786 2.85477H13.8456V0H21.7904V2.85477H19.2562V8.6087H16.3788V2.85477H16.3786Z" fill="white"/>
<path d="M23.0514 0H26.0516L27.8972 3.02484L29.7409 0H32.7423V8.6087H29.8768V4.34175L27.8972 7.40262H27.8477L25.8667 4.34175V8.6087H23.0514V0Z" fill="white"/>
<path d="M34.1743 0H37.0525V5.76315H41.0989V8.6087H34.1743V0Z" fill="white"/>
<path d="M22.594 39.1044H29.5661L28.9089 46.4475L22.594 48.1519V54.0425L34.2014 50.8255L34.2865 49.869L35.617 34.9628L35.7552 33.4424H22.594V39.1044Z" fill="white"/>
<path d="M22.594 27.6307V27.6445H36.2704L36.384 26.3719L36.6419 23.5015L36.7773 21.9825H22.594V27.6307Z" fill="white"/>
</svg>
